<?xml version="1.0" standalone="no"?>
<!DOCTYPE svg PUBLIC "-//W3C//DTD SVG 20010904//EN"
 "http://www.w3.org/TR/2001/REC-SVG-20010904/DTD/svg10.dtd">
<svg version="1.0" xmlns="http://www.w3.org/2000/svg"
 width="427.000000pt" height="427.000000pt" viewBox="0 0 427.000000 427.000000"
 preserveAspectRatio="xMidYMid meet">
<metadata>
Created by potrace 1.11, written by Peter Selinger 2001-2013
</metadata>
<g transform="translate(0.000000,427.000000) scale(0.100000,-0.100000)"
fill="#000000" stroke="none">
<path d="M854 3892 c2 -4 -19 -8 -47 -10 -28 -1 -55 -8 -59 -15 -6 -9 -8 -8
-8 3 -1 13 -2 12 -10 -1 -6 -10 -20 -15 -35 -14 -14 2 -25 -1 -25 -6 0 -5 -9
-9 -21 -9 -11 0 -18 -4 -15 -8 3 -5 -1 -9 -9 -9 -8 0 -15 5 -15 11 0 6 -4 4
-9 -4 -6 -8 -7 -19 -3 -25 3 -5 -2 -4 -11 4 -15 12 -21 9 -18 -11 0 -4 -6 -5
-15 -1 -8 3 -22 -3 -30 -13 -9 -11 -13 -14 -10 -7 4 7 -1 9 -14 6 -17 -5 -18
-8 -8 -21 10 -12 10 -14 1 -8 -8 4 -13 2 -13 -6 0 -10 -2 -10 -9 1 -8 12 -12
12 -26 -2 -9 -10 -22 -14 -28 -10 -8 4 -7 1 1 -9 10 -13 10 -18 1 -24 -7 -4
-9 -3 -5 4 4 6 -1 10 -12 9 -11 0 -19 -8 -18 -17 1 -8 -9 -16 -22 -18 -12 -2
-20 -8 -17 -13 4 -5 -3 -9 -14 -9 -11 0 -23 -5 -27 -12 -4 -7 -3 -8 4 -4 18
11 14 -2 -6 -22 -10 -10 -24 -16 -32 -14 -7 3 -10 0 -6 -6 8 -13 -20 -42 -42
-42 -15 0 -15 -2 -2 -10 13 -8 13 -10 -2 -10 -9 0 -20 -5 -24 -12 -5 -7 -3 -8
5 -3 10 5 9 2 0 -13 -7 -12 -17 -18 -22 -15 -5 3 -6 -4 -2 -17 5 -15 4 -20 -4
-16 -6 4 -11 2 -11 -4 0 -6 -4 -8 -10 -5 -6 3 -7 -1 -4 -9 3 -8 -4 -30 -17
-47 -13 -19 -17 -29 -8 -25 7 4 3 -2 -11 -14 -14 -12 -18 -18 -10 -14 13 7 13
5 2 -9 -8 -9 -11 -21 -7 -27 4 -6 1 -9 -7 -8 -8 2 -12 -4 -10 -14 2 -10 -3
-18 -10 -18 -9 0 -9 -3 2 -10 12 -8 12 -10 1 -10 -9 0 -12 -8 -9 -25 4 -19 2
-23 -7 -15 -9 8 -12 4 -10 -15 2 -14 -1 -25 -5 -25 -5 0 -7 -10 -5 -21 2 -12
-1 -31 -7 -43 -11 -20 -10 -20 8 -6 13 10 12 6 -4 -12 -15 -16 -20 -28 -13
-32 7 -5 6 -14 -3 -29 -11 -17 -14 -63 -14 -187 1 -91 4 -169 8 -175 13 -18
18 -55 8 -55 -6 0 -5 -9 3 -22 8 -13 14 -32 14 -43 0 -11 5 -26 12 -33 17 -17
17 -35 0 -26 -9 6 -9 4 1 -8 12 -15 24 -55 25 -85 0 -7 4 -13 9 -13 4 0 8 -7
8 -15 0 -28 30 -75 48 -76 15 0 14 -1 -2 -8 -19 -7 -19 -8 2 -29 14 -14 17
-22 9 -26 -7 -2 -4 -5 6 -5 9 -1 17 -8 17 -17 0 -9 5 -12 13 -8 7 5 6 0 -3
-11 -9 -11 -10 -16 -3 -11 7 4 13 2 13 -3 0 -6 8 -11 18 -11 14 0 15 -2 2 -10
-12 -8 -12 -10 5 -10 17 0 17 -2 5 -10 -12 -8 -12 -10 5 -10 17 0 17 -2 5 -10
-13 -8 -12 -10 3 -10 15 0 21 -11 18 -32 0 -4 8 -9 18 -13 11 -3 22 -12 25
-20 3 -8 12 -15 20 -15 8 0 18 -4 21 -10 3 -6 -1 -7 -12 -4 -10 3 -2 -4 17
-16 19 -12 26 -18 15 -15 -13 4 -16 3 -10 -3 6 -6 19 -12 30 -14 11 -2 19 -9
18 -15 -1 -6 4 -14 13 -17 10 -4 13 -2 8 7 -5 7 -1 7 10 -2 9 -8 15 -20 12
-27 -3 -9 0 -11 11 -7 11 4 14 2 9 -5 -5 -8 -1 -10 10 -5 12 4 15 3 10 -5 -5
-8 -1 -10 10 -5 13 5 16 2 11 -9 -4 -12 -1 -14 14 -11 11 3 19 0 19 -6 0 -7 5
-9 12 -5 6 4 8 3 4 -4 -3 -6 -1 -14 5 -18 6 -3 15 0 20 7 5 8 9 11 10 7 1 -5
3 -12 4 -18 1 -5 3 -13 4 -16 0 -4 9 0 19 7 9 7 14 9 10 5 -9 -11 10 -36 26
-36 6 0 4 5 -4 10 -11 7 -12 10 -2 10 8 0 16 -9 19 -21 4 -15 8 -17 14 -8 6
10 12 10 27 -4 10 -9 22 -14 25 -10 4 3 7 0 7 -8 0 -11 2 -11 10 1 6 10 10 11
10 3 0 -8 13 -13 30 -13 17 0 30 -5 30 -12 0 -9 4 -8 10 2 6 10 10 11 10 3 0
-8 15 -13 40 -13 22 0 40 -4 40 -10 0 -5 5 -10 11 -10 5 0 7 6 3 13 -6 9 -5 9
7 0 11 -9 101 -13 330 -14 193 0 321 -5 330 -11 11 -7 9 -8 -6 -4 -18 6 -18 5
2 -11 16 -13 20 -22 13 -32 -5 -9 -5 -22 1 -33 6 -12 6 -18 0 -18 -7 0 -7 -8
-2 -22 5 -13 5 -32 1 -43 -4 -11 -3 -28 2 -37 5 -12 5 -18 -1 -18 -7 0 -7 -8
-2 -22 5 -13 5 -32 1 -43 -4 -11 -3 -28 2 -37 5 -12 5 -18 -1 -18 -7 0 -7 -8
-2 -22 5 -13 5 -32 1 -44 -5 -11 -4 -27 0 -34 5 -8 4 -22 -1 -31 -6 -12 -5
-20 1 -24 6 -4 7 -11 3 -18 -9 -15 -10 -57 -2 -57 4 0 4 -13 -1 -28 -4 -16 -4
-36 2 -45 5 -10 5 -17 0 -17 -9 0 -8 -53 3 -69 3 -6 2 -11 -4 -11 -7 0 -7 -8
-2 -22 5 -13 5 -32 1 -43 -4 -11 -3 -28 2 -38 5 -11 5 -17 -1 -17 -7 0 -7 -8
-2 -23 5 -12 5 -31 1 -42 -4 -11 -3 -28 2 -37 5 -12 5 -18 -1 -18 -7 0 -7 -8
-2 -22 5 -13 5 -32 1 -44 -5 -11 -4 -27 0 -34 5 -8 4 -22 -1 -31 -6 -12 -5
-20 1 -24 6 -4 7 -11 3 -18 -9 -15 -11 -57 -2 -57 4 0 3 -16 -1 -35 -4 -20 -4
-38 1 -41 5 -3 7 -10 4 -15 -4 -5 77 -9 205 -9 l211 0 -2 90 c-1 50 1 93 4 97
4 3 2 14 -4 24 -5 11 -6 19 -2 19 4 0 6 34 3 76 -3 42 -2 78 2 81 5 2 3 13 -2
24 -8 14 -7 19 1 19 9 0 9 3 0 14 -8 10 -9 16 -1 21 7 4 7 12 0 26 -6 10 -7
19 -3 19 4 0 6 34 3 76 -3 42 -2 78 2 81 5 2 3 13 -2 24 -6 10 -7 19 -3 19 4
0 6 34 3 76 -3 42 -2 78 2 81 5 2 3 13 -2 24 -8 14 -7 19 1 19 9 0 9 3 0 14
-8 10 -9 16 -1 21 7 4 7 12 0 26 -6 10 -7 19 -3 19 4 0 6 34 3 76 -3 42 -2 78
2 81 5 2 3 13 -2 24 -6 10 -7 19 -3 19 4 0 6 34 3 76 -3 42 -2 78 2 81 5 2 3
13 -2 24 -8 14 -7 19 1 19 9 0 9 3 0 14 -8 10 -9 16 -1 21 7 4 7 12 0 26 -6
10 -7 19 -3 19 4 0 6 34 3 76 -3 42 -2 78 2 81 5 2 3 13 -2 24 -7 12 -7 19 -1
19 6 0 8 7 5 15 -5 13 -71 15 -510 15 -281 0 -504 4 -504 9 0 5 -12 9 -26 9
-15 0 -30 5 -34 12 -6 9 -9 9 -13 -1 -4 -10 -6 -10 -6 -1 -1 6 -8 12 -16 12
-8 0 -15 6 -15 13 0 7 -3 8 -8 2 -9 -13 -35 -19 -28 -6 3 5 -2 15 -11 22 -12
10 -14 10 -9 2 12 -21 -8 -15 -24 7 -11 15 -17 17 -29 7 -9 -7 -12 -8 -8 -1 3
6 -6 22 -21 35 l-27 24 20 -25 c20 -25 20 -25 0 -10 -11 8 -27 23 -36 32 -12
14 -18 15 -29 5 -10 -10 -10 -8 -2 9 10 19 9 21 -14 18 -22 -2 -23 0 -12 14
11 13 11 15 -4 9 -13 -4 -15 -2 -11 10 5 12 3 14 -7 8 -10 -6 -12 -4 -7 9 4 9
3 15 -2 12 -4 -3 -19 6 -31 19 -13 14 -18 25 -12 25 7 0 12 -4 12 -10 0 -5 6
-10 13 -10 6 0 0 12 -15 25 -16 13 -28 31 -28 38 0 8 -7 17 -15 21 -8 3 -12
12 -9 21 3 8 1 15 -6 15 -6 0 -9 4 -5 9 3 6 -3 14 -12 20 -11 6 -13 11 -5 11
7 0 10 5 7 10 -4 6 -10 8 -15 5 -5 -3 -12 0 -16 6 -5 8 -3 9 5 5 13 -9 12 25
-1 35 -5 3 -9 17 -10 32 -1 15 -5 27 -8 27 -3 0 -5 22 -5 49 0 27 -3 47 -6 45
-4 -2 -9 26 -11 62 -1 36 0 68 5 71 4 2 2 13 -3 24 -6 10 -7 19 -3 19 4 0 7
20 6 45 0 25 3 45 7 45 4 0 7 14 6 30 -1 20 2 30 12 30 12 0 12 3 2 15 -9 11
-9 15 -1 15 7 0 10 4 6 9 -3 6 3 14 12 20 14 8 15 10 3 11 -13 0 -13 1 0 10 8
5 11 10 6 10 -4 0 -1 12 9 26 9 15 12 23 5 19 -9 -6 -9 -3 0 14 6 12 15 19 20
16 6 -3 7 1 4 9 -4 9 1 18 10 22 9 3 16 10 16 16 0 5 -6 6 -12 2 -8 -4 -10 -3
-5 2 5 5 13 9 19 9 6 0 16 9 22 20 16 28 36 48 60 60 12 6 21 18 21 27 0 9 4
20 8 24 4 4 7 2 7 -5 0 -7 4 -10 10 -6 5 3 7 12 3 20 -3 10 1 15 15 15 11 0
25 6 31 14 7 8 20 13 29 11 9 -1 22 7 29 19 7 11 12 16 13 10 0 -12 30 -15 30
-2 0 4 7 8 16 8 9 0 12 5 8 13 -6 9 -4 9 8 -1 11 -9 18 -10 23 -2 3 5 19 10
36 10 16 0 29 5 29 13 0 8 4 7 11 -3 8 -11 12 -12 16 -2 4 9 113 12 498 12
271 0 501 3 509 6 12 5 14 10 6 19 -8 9 -8 15 0 20 7 4 7 12 0 26 -6 10 -7 19
-2 19 5 0 8 15 5 33 -2 17 -4 41 -4 52 1 11 1 31 1 44 0 44 -21 101 -41 112
-12 6 -18 17 -15 25 3 8 2 12 -3 9 -5 -3 -12 -1 -15 4 -4 5 -231 9 -551 10
-300 0 -544 -3 -541 -7z m-174 -526 c0 -3 -4 -8 -10 -11 -5 -3 -10 -1 -10 4 0
6 5 11 10 11 6 0 10 -2 10 -4z"/>
<path d="M2132 3893 c-6 -2 -9 -10 -5 -16 4 -7 -2 -5 -12 3 -11 9 -16 10 -11
3 4 -8 2 -13 -6 -13 -10 0 -9 -3 2 -11 12 -9 10 -10 -8 -6 -20 5 -21 3 -10
-10 11 -13 11 -17 0 -21 -10 -3 -10 -7 0 -20 10 -12 10 -16 1 -19 -9 -3 -10
-10 -3 -24 8 -13 7 -19 0 -19 -7 0 -7 -7 1 -21 8 -15 8 -19 0 -15 -8 5 -8 0
-1 -18 6 -17 6 -26 -1 -26 -6 0 -6 -6 0 -18 7 -13 7 -22 0 -29 -8 -8 -7 -13 0
-17 8 -5 8 -13 1 -27 -8 -14 -7 -19 1 -19 8 0 8 -4 -1 -15 -9 -10 -9 -15 -1
-15 6 0 11 -10 11 -22 0 -18 2 -20 9 -9 7 11 10 9 13 -10 2 -16 9 -23 21 -21
9 2 17 -2 17 -8 0 -7 126 -10 390 -10 305 0 390 -3 390 -12 0 -9 4 -8 10 2 5
8 10 11 10 5 0 -5 11 -15 25 -22 14 -6 23 -7 19 -2 -11 18 9 9 27 -13 13 -14
19 -17 19 -7 1 9 7 6 20 -9 10 -12 24 -21 32 -20 7 2 14 -7 16 -19 2 -13 10
-23 18 -23 8 0 14 -3 14 -8 0 -4 10 -12 21 -17 12 -6 22 -14 21 -20 0 -20 19
-45 30 -39 6 4 8 3 5 -4 -9 -14 3 -43 14 -36 5 3 6 -2 3 -11 -4 -8 2 -23 13
-33 10 -9 13 -13 5 -8 -11 8 -11 5 -1 -17 7 -15 16 -24 20 -21 5 3 6 -1 3 -9
-3 -8 0 -18 5 -22 6 -3 8 -12 4 -18 -4 -7 -8 -16 -8 -22 0 -7 -197 -11 -564
-13 -437 -2 -567 -5 -573 -15 -6 -9 -8 -9 -8 1 0 10 -3 10 -15 -2 -8 -8 -15
-20 -15 -26 0 -6 -4 -9 -9 -5 -6 3 -8 -4 -6 -15 2 -11 -1 -20 -6 -20 -6 0 -6
-7 1 -19 7 -14 7 -22 0 -26 -8 -5 -8 -11 0 -20 7 -9 7 -15 1 -19 -10 -6 -8
-37 4 -56 3 -6 1 -10 -5 -10 -8 0 -8 -6 0 -20 7 -13 7 -20 1 -20 -7 0 -7 -9
-1 -26 6 -14 7 -23 2 -21 -8 6 -6 -38 4 -71 3 -13 12 -21 19 -18 8 3 11 -4 9
-20 -1 -13 2 -22 7 -18 5 3 9 0 9 -7 0 -8 4 -8 15 1 10 9 15 9 15 1 0 -8 153
-11 561 -11 489 0 560 -2 556 -15 -4 -8 -2 -17 4 -21 6 -4 3 -14 -8 -27 -10
-11 -12 -17 -5 -13 11 7 12 4 3 -13 -7 -11 -14 -21 -17 -21 -3 0 -2 5 2 12 4
7 3 8 -5 4 -9 -6 -9 -11 -1 -21 12 -14 -3 -31 -18 -21 -5 3 -6 -8 -4 -25 3
-21 1 -29 -9 -27 -7 2 -13 -6 -14 -17 0 -11 -6 -19 -13 -17 -8 1 -11 -2 -7 -8
3 -5 -1 -13 -9 -16 -9 -3 -16 -12 -16 -20 0 -8 -5 -14 -12 -14 -19 0 -47 -31
-41 -46 3 -8 -1 -14 -11 -14 -9 0 -16 -4 -16 -10 0 -5 -6 -10 -14 -10 -7 0
-19 -6 -25 -14 -7 -8 -21 -13 -31 -11 -12 2 -21 -4 -26 -17 -5 -16 -8 -18 -15
-7 -7 12 -9 11 -9 -1 0 -13 -1 -13 -10 0 -6 10 -10 11 -10 3 0 -7 -7 -13 -15
-13 -8 0 -15 -4 -15 -10 0 -5 -5 -10 -11 -10 -5 0 -7 6 -3 13 6 9 4 9 -7 0 -7
-7 -26 -13 -41 -13 -16 0 -28 -6 -28 -12 0 -9 -4 -8 -10 2 -9 13 -10 13 -10 0
0 -12 -2 -13 -9 -1 -5 8 -10 9 -12 2 -3 -7 -104 -11 -327 -11 -178 -1 -330 -4
-338 -7 -8 -3 -14 -12 -14 -20 0 -9 -5 -11 -12 -7 -8 5 -7 0 2 -11 8 -10 10
-16 3 -12 -15 9 -23 -13 -11 -35 5 -12 5 -18 -1 -18 -7 0 -7 -9 -1 -26 6 -14
7 -23 2 -21 -9 6 -8 -46 2 -62 4 -6 3 -18 -4 -26 -8 -9 -8 -15 0 -20 6 -3 8
-11 4 -16 -10 -16 -12 -59 -3 -59 5 0 4 -12 -1 -26 -7 -19 -7 -23 2 -18 7 5 9
2 5 -9 -4 -10 3 -21 19 -31 18 -12 24 -13 24 -4 0 10 2 10 8 0 7 -10 68 -13
270 -13 199 0 262 -3 262 -12 0 -8 4 -6 10 3 6 10 10 11 10 3 0 -7 9 -13 20
-13 11 0 20 -5 20 -11 0 -8 6 -7 17 2 11 10 14 10 9 2 -5 -9 0 -13 13 -13 12
0 21 -5 21 -11 0 -5 4 -7 10 -4 5 3 10 -2 11 -12 0 -10 3 -13 6 -6 3 10 7 10
18 0 7 -7 11 -16 8 -20 -3 -5 5 -3 18 4 22 11 23 11 10 -5 -12 -14 -12 -16 3
-10 10 4 16 1 16 -9 0 -9 9 -14 23 -13 13 1 21 -4 19 -12 -1 -7 6 -16 15 -19
24 -9 43 -35 38 -51 -3 -9 0 -10 15 -2 16 9 18 7 15 -10 -2 -13 2 -20 11 -20
10 0 12 -5 8 -12 -6 -9 -3 -9 9 0 14 12 16 11 12 -8 -3 -16 0 -20 11 -16 9 3
12 2 8 -5 -3 -6 4 -17 16 -26 12 -8 19 -21 16 -28 -3 -8 3 -19 12 -27 16 -12
16 -11 2 7 -14 19 -14 19 3 6 11 -9 16 -22 13 -33 -3 -15 -2 -17 9 -8 11 9 12
7 8 -9 -3 -13 -1 -21 6 -21 7 0 9 -5 6 -10 -3 -6 -1 -10 6 -10 7 0 10 -3 6 -6
-8 -9 25 -44 36 -37 5 3 4 -3 -1 -14 -9 -15 -8 -20 3 -20 8 0 11 5 8 11 -3 6
-2 7 3 3 5 -5 9 -16 9 -25 0 -9 5 -16 11 -15 7 1 10 -6 7 -17 -3 -12 0 -20 6
-20 7 0 9 -4 6 -10 -3 -5 6 -19 20 -32 25 -21 36 -56 13 -42 -7 4 -8 3 -4 -5
4 -6 12 -9 17 -6 5 4 9 1 9 -4 0 -6 8 -11 18 -12 15 0 14 -1 -3 -8 -18 -7 -18
-8 -1 -18 12 -7 17 -17 13 -27 -4 -9 -3 -15 2 -12 5 3 15 -2 22 -11 10 -11 10
-14 2 -9 -9 5 -11 2 -7 -8 3 -9 10 -16 14 -16 4 0 10 -13 14 -30 4 -23 11 -30
28 -30 17 0 19 -3 9 -9 -9 -6 -10 -11 -2 -15 6 -4 8 -12 5 -18 -4 -7 -2 -8 4
-4 11 6 16 -6 13 -26 0 -5 4 -8 10 -8 5 0 8 -4 4 -9 -3 -5 0 -15 7 -23 7 -7
14 -20 16 -28 2 -8 8 -18 14 -21 6 -4 8 -14 5 -24 -4 -9 -3 -14 2 -11 8 5 30
-15 46 -43 5 -9 4 -12 -3 -7 -7 4 -12 2 -12 -3 0 -6 7 -11 15 -11 8 0 16 -7
16 -15 3 -29 4 -33 13 -42 5 -5 6 -2 1 6 -6 10 -4 12 4 7 9 -6 9 -11 0 -22
-10 -12 -10 -15 1 -12 8 2 16 -6 18 -16 2 -11 12 -27 21 -35 12 -11 12 -13 1
-6 -13 9 -13 8 -1 -7 12 -16 37 -18 257 -18 151 0 245 4 249 10 3 5 2 10 -2
10 -5 0 -14 9 -21 21 -8 12 -9 18 -3 15 7 -4 8 -1 5 8 -3 9 -10 16 -15 16 -5
0 -9 9 -9 20 0 11 -5 20 -11 20 -6 0 -8 7 -5 16 4 10 0 18 -13 21 -13 3 -18
10 -14 21 5 11 2 14 -9 9 -12 -4 -14 -1 -11 14 4 14 0 19 -13 19 -15 0 -16 2
-5 9 9 6 10 11 2 15 -6 4 -8 12 -5 18 5 8 1 9 -10 5 -14 -6 -15 -4 -5 16 11
20 11 21 -4 8 -10 -7 -18 -10 -18 -5 -1 5 -2 16 -3 24 0 8 -6 14 -12 13 -7 -1
-10 6 -7 17 3 12 0 20 -7 20 -7 0 -10 6 -7 14 6 14 -25 46 -46 46 -8 0 -7 4 3
10 11 7 11 10 2 10 -7 0 -11 4 -8 9 3 5 -2 12 -12 16 -16 7 -15 8 3 15 19 7
19 7 -2 14 -13 4 -24 12 -24 17 -1 5 -3 14 -4 19 -1 6 -3 15 -4 20 0 6 -11 10
-23 10 -17 0 -19 3 -10 9 11 7 11 11 -2 24 -9 8 -16 22 -16 29 -1 18 -26 49
-33 41 -6 -6 -11 12 -8 30 0 4 -3 7 -9 7 -5 0 -10 12 -10 26 0 19 -4 25 -14
21 -10 -4 -13 -1 -9 9 3 7 0 14 -7 14 -6 0 -9 4 -5 9 3 6 -3 15 -12 21 -15 9
-14 10 7 6 22 -5 21 -4 -5 9 -16 8 -23 15 -15 15 8 1 4 6 -10 12 -16 6 -20 12
-12 15 10 4 10 8 1 19 -6 8 -16 11 -23 7 -7 -4 -6 -1 1 9 13 15 8 28 -11 28
-6 0 -4 -5 4 -11 13 -9 13 -10 0 -6 -8 2 -14 11 -12 21 2 9 -2 16 -7 16 -6 0
-16 19 -23 41 -10 33 -13 38 -19 23 -7 -16 -8 -16 -9 6 -2 14 -2 31 -1 38 1 7
-4 11 -11 10 -7 -2 -12 3 -10 10 2 13 -14 17 -21 5 -2 -5 -2 -2 0 6 2 7 -8 22
-22 33 -15 11 -24 23 -21 26 3 3 -2 11 -12 19 -9 8 -11 12 -4 8 6 -3 12 -1 12
4 0 10 -14 15 -33 12 -4 -1 -7 6 -5 14 2 8 -8 21 -21 28 -13 6 -23 16 -22 20
1 5 -7 17 -18 26 -11 10 -18 21 -14 25 3 3 -1 6 -11 6 -11 0 -15 4 -10 13 6 8
3 8 -9 -1 -14 -12 -16 -11 -12 7 2 11 -1 24 -7 27 -7 5 -8 2 -4 -7 4 -8 0 -5
-8 5 -9 11 -16 16 -16 12 0 -5 -6 -3 -13 3 -8 6 -17 8 -20 4 -7 -6 -11 12 -8
30 1 4 -7 7 -16 5 -11 -2 -17 2 -15 11 3 12 0 12 -12 1 -11 -8 -16 -9 -17 -1
-1 6 -2 17 -3 24 -3 15 23 47 37 47 6 0 2 -7 -9 -15 -10 -8 -14 -15 -7 -15 6
0 21 12 32 26 12 16 21 21 21 13 1 -10 4 -8 11 4 6 9 15 15 20 11 6 -3 9 1 7
9 -2 9 2 16 7 16 6 0 9 -8 7 -17 -1 -11 2 -9 11 6 7 12 17 19 22 15 4 -4 6 -1
3 7 -4 11 1 16 15 17 11 1 25 9 29 18 5 8 14 13 19 9 6 -3 13 3 16 14 3 13 11
18 19 15 10 -4 12 0 7 13 -6 17 -5 17 10 5 15 -12 17 -12 12 2 -4 8 -1 18 4
22 6 3 9 10 6 15 -3 5 4 7 16 5 16 -3 19 0 15 12 -5 11 -2 14 9 9 10 -3 13 -2
10 5 -4 6 3 13 15 16 16 4 18 8 8 14 -10 7 -9 9 4 9 9 0 20 5 24 12 5 7 3 8
-5 3 -10 -5 -9 -2 0 13 7 12 17 18 23 15 5 -4 7 1 3 10 -4 11 1 20 13 27 11 6
20 18 20 26 0 9 5 12 13 8 9 -6 9 -4 -1 8 -10 13 -10 18 -1 24 8 5 10 3 4 -7
-5 -10 -5 -11 3 -4 5 6 12 19 14 30 2 11 9 19 16 18 6 -2 9 4 6 12 -4 9 -2 21
4 28 11 13 12 17 12 43 0 8 5 12 10 9 6 -4 10 -3 9 2 -4 24 2 43 12 37 8 -4 8
0 0 15 -11 20 -8 25 12 22 4 -1 3 7 -3 18 -7 14 -6 23 3 33 8 7 12 19 9 26 -3
9 47 12 222 12 152 0 226 3 226 11 0 5 5 7 10 4 6 -3 10 1 10 10 0 11 5 15 16
11 8 -3 12 -2 9 4 -3 6 -1 10 5 10 7 0 9 7 6 16 -4 10 -2 13 6 8 7 -5 9 1 6
19 -3 14 -1 31 3 39 4 7 3 18 -3 25 -7 9 -7 13 2 13 9 0 9 4 2 13 -7 8 -7 18
-2 27 5 9 5 19 -2 27 -6 7 -7 13 -2 13 13 0 4 142 -9 159 -9 12 -9 13 0 7 9
-5 11 -2 7 8 -8 22 -34 29 -28 8 2 -9 -1 -7 -7 6 -12 22 -14 22 -235 22 -138
0 -225 4 -229 10 -3 6 -2 10 3 10 13 0 3 41 -15 62 -10 11 -11 18 -3 23 5 3 7
12 3 18 -4 7 -9 21 -10 32 -2 10 -8 22 -13 25 -6 4 -12 15 -14 26 -8 39 -26
74 -38 74 -8 0 -9 3 -3 8 13 9 19 35 6 28 -5 -3 -15 2 -22 11 -8 9 -9 14 -3
10 6 -3 11 0 11 8 0 8 -4 12 -9 9 -4 -3 -8 0 -8 6 0 6 -4 9 -9 5 -5 -3 -13 0
-17 6 -4 8 -3 9 4 5 7 -4 12 -1 12 8 0 9 -5 16 -11 16 -5 0 -7 5 -4 10 4 6
112 10 291 10 193 0 284 3 284 11 0 5 5 7 10 4 6 -3 10 1 10 10 0 11 5 15 16
11 10 -4 13 -2 8 6 -5 8 -2 9 11 4 14 -5 15 -4 7 6 -7 9 -6 18 4 32 10 14 11
23 3 33 -6 7 -8 13 -3 13 10 0 10 72 0 88 -3 6 -2 13 2 16 5 3 6 26 2 51 -4
25 -3 45 1 45 9 0 -1 41 -15 59 -8 10 -8 13 0 8 6 -3 11 0 11 7 0 9 -7 12 -16
8 -9 -3 -13 -2 -9 3 4 4 2 17 -3 28 -9 16 -13 17 -20 6 -6 -9 -9 -10 -9 -2 0
9 -240 12 -1027 11 -566 0 -1034 -2 -1041 -5z m1008 -1632 c0 -5 -7 -12 -16
-15 -14 -5 -15 -4 -4 9 14 17 20 19 20 6z m-1017 -186 c-3 -9 -8 -14 -10 -11
-3 3 -2 9 2 15 9 16 15 13 8 -4z m-8 -385 c3 -6 -1 -7 -9 -4 -18 7 -21 14 -7
14 6 0 13 -4 16 -10z m1299 -866 c3 -8 2 -12 -4 -9 -6 3 -10 10 -10 16 0 14 7
11 14 -7z"/>
<path d="M3158 3283 c6 -2 9 -10 6 -15 -4 -7 -2 -8 5 -4 13 9 5 26 -12 25 -9
0 -8 -2 1 -6z"/>
<path d="M3470 2029 c0 -5 5 -7 10 -4 6 3 10 8 10 11 0 2 -4 4 -10 4 -5 0 -10
-5 -10 -11z"/>
<path d="M3385 1631 c-6 -11 13 -26 22 -17 4 3 1 6 -6 6 -7 0 -9 5 -6 10 3 6
4 10 1 10 -3 0 -7 -4 -11 -9z"/>
<path d="M3476 1521 c-3 -5 2 -15 12 -22 15 -12 16 -12 5 2 -7 9 -10 19 -6 22
3 4 4 7 0 7 -3 0 -8 -4 -11 -9z"/>
<path d="M2950 1486 c0 -2 8 -10 18 -17 15 -13 16 -12 3 4 -13 16 -21 21 -21
13z"/>
<path d="M3077 1339 c7 -7 15 -10 18 -7 3 3 -2 9 -12 12 -14 6 -15 5 -6 -5z"/>
</g>
</svg>
